<?xml version="1.0" encoding="utf-8"?>
<!-- Generator: Adobe Illustrator 26.0.2, SVG Export Plug-In . SVG Version: 6.00 Build 0)  -->
<svg version="1.1" id="Ebene_1" xmlns="http://www.w3.org/2000/svg" xmlns:xlink="http://www.w3.org/1999/xlink" x="0px" y="0px"
	 viewBox="0 0 170 81.1" style="enable-background:new 0 0 170 81.1;" xml:space="preserve" width="170" height="82">
<style type="text/css">
	.st0{fill:#FFFFFF;}
	.st1{fill:#E30613;}
	.st2{fill:#B2B2B2;}
	.st3{fill-rule:evenodd;clip-rule:evenodd;fill:#121516;}
</style>
<g>
	<path d="M52,29.14c0.3,0.5,1.7,3,4.5,3c1.3,0,3.5-0.5,4.9-3.3c0.7-1.4,1.1-2.9,1.1-6.1c0-2.9-0.2-5.7-2.5-7.6
		c-0.4-0.3-1.5-1.2-3.2-1.2c-1.6,0-2.6,0.7-3.1,1.1c-3.1,2.5-2.7,7.6-2.7,8.3C51,25.34,51.1,27.44,52,29.14"/>
	<path d="M51.5-0.06l0.1,12.3c2.9-2.7,5-4.6,9.1-4.6c2.6,0,4.6,0.9,5.5,1.4c2.9,1.5,7.1,5.5,7.1,13.7c0,1.5-0.1,6.2-2.6,10.2
		c-2.2,3.4-6.1,5.6-10.3,5.6c-0.6,0-1.7-0.1-3.1-0.5c-2.7-0.8-4.1-2.3-6-4.5l-0.3,4.2l-10.6-0.1c0.2-4.8,0.4-9.7,0.4-14.6
		c0-3.5-0.1-7-0.1-10.5c-0.1-4.3,0-8.5,0-12.7H0v81.18h80.9V-0.06H51.5z"/>
	<path class="st0" d="M40.7,12.64c0,3.5,0.1,7,0.1,10.5c0,4.9-0.2,9.8-0.4,14.6l10.6,0l0.2-4.2c1.9,2.2,3.3,3.7,6,4.5
		c1.4,0.4,2.5,0.5,3.1,0.5c4.2,0,8.1-2.2,10.3-5.6c2.5-3.9,2.6-8.7,2.6-10.2c0-8.2-4.3-12.1-7.1-13.7c-0.9-0.5-2.8-1.4-5.5-1.4
		c-4.1,0-6.2,1.9-9.1,4.6v-12.3H40.7C40.7,4.14,40.6,8.44,40.7,12.64L40.7,12.64z M53.6,15.04c0.5-0.4,1.5-1.1,3.1-1.1
		s2.7,0.9,3.2,1.2c2.2,1.9,2.5,4.7,2.5,7.6c0,3.3-0.3,4.7-1.1,6.1c-1.4,2.7-3.7,3.3-4.9,3.3c-2.7,0-4.1-2.5-4.5-3
		c-0.9-1.7-1-3.8-1.1-5.8C50.9,22.74,50.6,17.54,53.6,15.04"/>
	<path class="st1" d="M79.7,63.74c-0.6-1.7-1.1-3.3-1.7-5c-1.1-3.2-1.9-6.4-2.9-9.7H60.7c-1.5,4.4-3.1,8.9-4.5,13.4
		c-1.1,3.7-2.2,7.4-3.2,11.2c-2.3-11-3.2-13.8-6.6-24.5H32.3l11.3,31.9H60l3.4-9.1c1.9-5.9,2.4-7.4,3.5-13.5
		c0.5,2.7,1.1,5.4,1.8,8.2c0.6,2.5,1.5,4.9,2.3,7.3s1.6,4.9,2.3,7.3h7.5v-13.5C80.6,66.24,80.2,65.04,79.7,63.74"/>
	<path class="st2" d="M19,34.34l-6.3-1.8c-3.1-0.9-4.8-1.3-4.8-3.7c0-2.2,2.1-3.5,4.9-3.5c1.6,0,4.7,0.3,5,4.2h9.4
		c-0.3-7-6.2-10.4-13.4-10.4c-6.4,0.1-11.3,2.2-13.8,5.7v11c2,2.7,5.4,3.7,7.3,4.3l6.4,1.7c4.1,1.1,4.9,2.4,4.9,4
		c0,2.1-1.8,4.2-5.4,4.2c-4.3,0-5.7-2.6-5.9-4.8H0v6.7l0.2,0.2c3.2,3.4,7.5,4.3,12.1,4.3c11,0,16.2-6.1,16.2-12.2
		C28.4,39.44,25.4,36.14,19,34.34"/>
</g>
<g>
	<rect x="89.05" y="0.06" class="st3" width="80.95" height="81.04"/>
	<g>
		<path class="st0" d="M93.32,9.45c0-0.03,0-0.88-0.05-1.42h2.19l0.06,1.17c0.22-0.35,0.83-1.36,2.53-1.36
			c1.53,0,2.17,0.93,2.37,1.46c0.17,0.48,0.22,0.88,0.22,2.33v4.21h-2.33v-4.84c0-0.32,0-0.6-0.12-0.85
			c-0.17-0.34-0.52-0.66-1.11-0.66c-0.49,0-0.94,0.23-1.19,0.6c-0.14,0.2-0.28,0.59-0.28,1.19v4.56h-2.3V9.45z"/>
		<path class="st0" d="M105.62,12.53c0,0.51,0,2.08,1.59,2.08c0.57,0,1.14-0.22,1.36-1.08h2.08c-0.03,0.37-0.11,1.03-0.74,1.7
			c-0.57,0.6-1.59,0.91-2.73,0.91c-0.66,0-1.93-0.12-2.74-0.97c-0.71-0.74-1-1.79-1-3.04c0-1.26,0.31-2.77,1.62-3.68
			c0.6-0.4,1.34-0.65,2.19-0.65c1.11,0,2.44,0.43,3.15,1.88c0.52,1.06,0.49,2.2,0.46,2.85H105.62z M108.52,11.1
			c0-0.35-0.03-1.74-1.36-1.74c-1,0-1.42,0.83-1.46,1.74H108.52z"/>
		<path class="st0" d="M115.68,8.06v4.64c0,0.68,0,1.71,1.22,1.71c1.46,0,1.46-1.09,1.46-2.42V8.06h2.34v5.13
			c0.03,1.68,0.05,1.88,0.05,2.08c0.02,0.22,0.03,0.35,0.06,0.57h-2.22l-0.08-1.03c-0.23,0.34-0.82,1.23-2.3,1.23
			c-1.05,0-1.91-0.48-2.34-1.05c-0.51-0.63-0.51-1.71-0.51-2.1V8.06H115.68z"/>
		<path class="st0" d="M125.78,12.53c0,0.51,0,2.08,1.59,2.08c0.57,0,1.14-0.22,1.36-1.08h2.08c-0.03,0.37-0.11,1.03-0.74,1.7
			c-0.57,0.6-1.59,0.91-2.73,0.91c-0.66,0-1.93-0.12-2.74-0.97c-0.71-0.74-1-1.79-1-3.04c0-1.26,0.31-2.77,1.62-3.68
			c0.6-0.4,1.34-0.65,2.19-0.65c1.11,0,2.44,0.43,3.15,1.88c0.52,1.06,0.49,2.2,0.46,2.85H125.78z M128.68,11.1
			c0-0.35-0.03-1.74-1.36-1.74c-1,0-1.42,0.83-1.46,1.74H128.68z"/>
		<path class="st0" d="M93.33,26.12c0-0.49-0.03-0.97-0.08-1.46h2.2l0.08,1c0.25-0.34,0.85-1.17,2.41-1.17
			c1.79,0,2.3,1.09,2.45,1.46c0.65-1.25,1.7-1.45,2.5-1.45c1.57,0,2.2,0.94,2.37,1.25c0.42,0.68,0.39,1.62,0.39,2.3v4.39h-2.3v-4.58
			c0-0.83-0.12-1.76-1.31-1.76c-1.37,0-1.4,1.28-1.4,2.44v3.9h-2.3v-4.63c0-0.6-0.02-1.71-1.28-1.71c-1.43,0-1.43,1.23-1.43,1.76
			v4.58h-2.3V26.12z"/>
		<path class="st0" d="M110.76,29.13c0,0.51,0,2.08,1.59,2.08c0.57,0,1.14-0.22,1.36-1.08h2.08c-0.03,0.37-0.11,1.03-0.74,1.7
			c-0.57,0.6-1.59,0.91-2.73,0.91c-0.66,0-1.93-0.12-2.74-0.97c-0.71-0.74-1-1.79-1-3.04c0-1.26,0.31-2.78,1.62-3.68
			c0.6-0.4,1.34-0.65,2.19-0.65c1.11,0,2.44,0.43,3.14,1.88c0.52,1.06,0.49,2.2,0.46,2.85H110.76z M113.66,27.69
			c0-0.35-0.03-1.74-1.36-1.74c-1,0-1.42,0.83-1.46,1.74H113.66z"/>
		<path class="st0" d="M123.73,21.31h2.3v9.87c0,0.46,0.03,0.97,0.06,1.26h-2.31l-0.06-1.13c-0.15,0.28-0.31,0.57-0.79,0.88
			c-0.57,0.37-1.17,0.4-1.51,0.4c-2.08,0-3.31-1.43-3.31-3.87c0-2.57,1.4-4.18,3.44-4.18c1.4,0,1.99,0.79,2.19,1.06V21.31z
			 M121.99,31.12c0.66,0,1.2-0.4,1.45-0.88c0.34-0.65,0.37-1.45,0.37-1.83c0-1.53-0.66-2.36-1.7-2.36c-1.53,0-1.7,1.83-1.7,2.62
			C120.41,29.96,120.85,31.12,121.99,31.12z"/>
		<path class="st0" d="M129,21.31h2.44v1.99H129V21.31z M129.08,24.64h2.28v7.8h-2.28V24.64z"/>
		<path class="st0" d="M136.28,29.13c0,0.51,0,2.08,1.59,2.08c0.57,0,1.14-0.22,1.36-1.08h2.08c-0.03,0.37-0.11,1.03-0.74,1.7
			c-0.57,0.6-1.59,0.91-2.73,0.91c-0.66,0-1.93-0.12-2.74-0.97c-0.71-0.74-1-1.79-1-3.04c0-1.26,0.31-2.78,1.62-3.68
			c0.6-0.4,1.34-0.65,2.19-0.65c1.11,0,2.44,0.43,3.15,1.88c0.52,1.06,0.49,2.2,0.46,2.85H136.28z M139.18,27.69
			c0-0.35-0.03-1.74-1.36-1.74c-1,0-1.42,0.83-1.46,1.74H139.18z"/>
		<path class="st0" d="M144.13,26.05c0-0.03,0-0.88-0.05-1.42h2.19l0.06,1.17c0.22-0.35,0.83-1.36,2.53-1.36
			c1.53,0,2.17,0.93,2.37,1.46c0.17,0.48,0.22,0.88,0.22,2.33v4.21h-2.33V27.6c0-0.32,0-0.6-0.12-0.85
			c-0.17-0.34-0.52-0.66-1.11-0.66c-0.49,0-0.94,0.23-1.19,0.6c-0.14,0.2-0.28,0.59-0.28,1.19v4.56h-2.3V26.05z"/>
	</g>
</g>
</svg>
